<svg xmlns="http://www.w3.org/2000/svg" width="2000" height="1440"><path d="M1086,924L721,819L864,1267Z" fill="#dbe4c8" stroke="#dbe4c8" stroke-width="1.51"/><path d="M721,819L701,1289L864,1267Z" fill="#c8c6b0" stroke="#c8c6b0" stroke-width="1.51"/><path d="M721,819L415,893L701,1289Z" fill="#e0c6a7" stroke="#e0c6a7" stroke-width="1.51"/><path d="M864,1267L1221,1350L1086,924Z" fill="#b6cdce" stroke="#b6cdce" stroke-width="1.51"/><path d="M1044,1594L1221,1350L864,1267Z" fill="#a19cb6" stroke="#a19cb6" stroke-width="1.51"/><path d="M701,1289L1044,1594L864,1267Z" fill="#a898a4" stroke="#a898a4" stroke-width="1.51"/><path d="M1221,1350L1489,856L1086,924Z" fill="#b7dceb" stroke="#b7dceb" stroke-width="1.51"/><path d="M1086,924L1108,406L721,819Z" fill="#fffcbb" stroke="#fffcbb" stroke-width="1.51"/><path d="M1323,486L1108,406L1086,924Z" fill="#f5edc5" stroke="#f5edc5" stroke-width="1.51"/><path d="M721,819L419,473L415,893Z" fill="#ffca8a" stroke="#ffca8a" stroke-width="1.51"/><path d="M415,893L223,1207L701,1289Z" fill="#cc9b90" stroke="#cc9b90" stroke-width="1.51"/><path d="M701,1289L707,1759L1044,1594Z" fill="#a48799" stroke="#a48799" stroke-width="1.51"/><path d="M223,1207L362,1493L701,1289Z" fill="#b06f7d" stroke="#b06f7d" stroke-width="1.51"/><path d="M502,406L419,473L721,819Z" fill="#febe73" stroke="#febe73" stroke-width="1.51"/><path d="M-146,913L-48,1277L223,1207Z" fill="#a86d78" stroke="#a86d78" stroke-width="1.51"/><path d="M1489,856L1323,486L1086,924Z" fill="#e1f1df" stroke="#e1f1df" stroke-width="1.51"/><path d="M727,317L502,406L721,819Z" fill="#ffc374" stroke="#ffc374" stroke-width="1.51"/><path d="M1108,406L727,317L721,819Z" fill="#ffda8c" stroke="#ffda8c" stroke-width="1.51"/><path d="M362,1493L707,1759L701,1289Z" fill="#a76c80" stroke="#a76c80" stroke-width="1.51"/><path d="M1724,1214L1736,1013L1489,856Z" fill="#87b9d8" stroke="#87b9d8" stroke-width="1.51"/><path d="M1044,1594L1438,1598L1221,1350Z" fill="#8a8ec5" stroke="#8a8ec5" stroke-width="1.51"/><path d="M1358,1971L1438,1598L1044,1594Z" fill="#848bc4" stroke="#848bc4" stroke-width="1.51"/><path d="M1626,156L1438,209L1323,486Z" fill="#d89e91" stroke="#d89e91" stroke-width="1.51"/><path d="M1724,1214L1489,856L1221,1350Z" fill="#88bcd9" stroke="#88bcd9" stroke-width="1.51"/><path d="M1438,1598L1724,1214L1221,1350Z" fill="#6e8ac1" stroke="#6e8ac1" stroke-width="1.51"/><path d="M727,317L408,240L502,406Z" fill="#f98d51" stroke="#f98d51" stroke-width="1.51"/><path d="M502,406L408,240L419,473Z" fill="#f8884e" stroke="#f8884e" stroke-width="1.51"/><path d="M-146,913L223,1207L415,893Z" fill="#d18c83" stroke="#d18c83" stroke-width="1.51"/><path d="M875,71L408,240L727,317Z" fill="#f38a51" stroke="#f38a51" stroke-width="1.51"/><path d="M707,1759L871,1931L1044,1594Z" fill="#a48b9f" stroke="#a48b9f" stroke-width="1.51"/><path d="M549,2113L871,1931L707,1759Z" fill="#a57a8d" stroke="#a57a8d" stroke-width="1.51"/><path d="M223,1207L-48,1277L362,1493Z" fill="#a2526a" stroke="#a2526a" stroke-width="1.51"/><path d="M362,1493L197,1843L707,1759Z" fill="#a55272" stroke="#a55272" stroke-width="1.51"/><path d="M-146,913L415,893L419,473Z" fill="#f4a279" stroke="#f4a279" stroke-width="1.51"/><path d="M1108,406L875,71L727,317Z" fill="#fcad71" stroke="#fcad71" stroke-width="1.51"/><path d="M985,-81L875,71L1108,406Z" fill="#f29e6d" stroke="#f29e6d" stroke-width="1.51"/><path d="M1323,486L1438,209L1108,406Z" fill="#edbda1" stroke="#edbda1" stroke-width="1.51"/><path d="M1848,615L1323,486L1489,856Z" fill="#c7d3c1" stroke="#c7d3c1" stroke-width="1.51"/><path d="M-210,471L-146,913L419,473Z" fill="#da875e" stroke="#da875e" stroke-width="1.51"/><path d="M-70,1630L197,1843L362,1493Z" fill="#943160" stroke="#943160" stroke-width="1.51"/><path d="M2183,964L1848,615L1736,1013Z" fill="#929ccd" stroke="#929ccd" stroke-width="1.51"/><path d="M1736,1013L1848,615L1489,856Z" fill="#a8c3d7" stroke="#a8c3d7" stroke-width="1.51"/><path d="M1438,1598L1787,1699L1724,1214Z" fill="#5169b0" stroke="#5169b0" stroke-width="1.51"/><path d="M871,1931L1358,1971L1044,1594Z" fill="#9a92b9" stroke="#9a92b9" stroke-width="1.51"/><path d="M875,71L395,-229L408,240Z" fill="#d6623f" stroke="#d6623f" stroke-width="1.51"/><path d="M1438,209L985,-81L1108,406Z" fill="#efa08b" stroke="#efa08b" stroke-width="1.51"/><path d="M-48,1277L-70,1630L362,1493Z" fill="#8a2b5e" stroke="#8a2b5e" stroke-width="1.51"/><path d="M-349,1579L-70,1630L-48,1277Z" fill="#80265d" stroke="#80265d" stroke-width="1.51"/><path d="M197,1843L549,2113L707,1759Z" fill="#a65c77" stroke="#a65c77" stroke-width="1.51"/><path d="M871,1931L549,2113L1358,1971Z" fill="#a38fa5" stroke="#a38fa5" stroke-width="1.51"/><path d="M1358,1971L1787,1699L1438,1598Z" fill="#6277b8" stroke="#6277b8" stroke-width="1.51"/><path d="M1724,1214L2183,964L1736,1013Z" fill="#6d90c4" stroke="#6d90c4" stroke-width="1.51"/><path d="M1438,209L1380,-218L985,-81Z" fill="#c98685" stroke="#c98685" stroke-width="1.51"/><path d="M1848,615L1626,156L1323,486Z" fill="#c7ab99" stroke="#c7ab99" stroke-width="1.51"/><path d="M-146,913L-330,1002L-48,1277Z" fill="#b2777d" stroke="#b2777d" stroke-width="1.51"/><path d="M-447,556L-330,1002L-146,913Z" fill="#d38b80" stroke="#d38b80" stroke-width="1.51"/><path d="M-176,187L-210,471L408,240Z" fill="#ce4635" stroke="#ce4635" stroke-width="1.51"/><path d="M408,240L-210,471L419,473Z" fill="#eb6d40" stroke="#eb6d40" stroke-width="1.51"/><path d="M197,1843L-27,1902L549,2113Z" fill="#9b3963" stroke="#9b3963" stroke-width="1.51"/><path d="M-70,1630L-27,1902L197,1843Z" fill="#84285d" stroke="#84285d" stroke-width="1.51"/><path d="M-349,1579L-27,1902L-70,1630Z" fill="#80265d" stroke="#80265d" stroke-width="1.51"/><path d="M1787,1699L2103,1385L1724,1214Z" fill="#3a4ca0" stroke="#3a4ca0" stroke-width="1.51"/><path d="M2103,1385L2183,964L1724,1214Z" fill="#5169b0" stroke="#5169b0" stroke-width="1.51"/><path d="M1848,615L2130,242L1626,156Z" fill="#ae717e" stroke="#ae717e" stroke-width="1.51"/><path d="M-36,-42L-176,187L408,240Z" fill="#c32127" stroke="#c32127" stroke-width="1.51"/><path d="M-447,556L-496,1306L-330,1002Z" fill="#c38384" stroke="#c38384" stroke-width="1.51"/><path d="M-496,1306L-349,1579L-48,1277Z" fill="#853561" stroke="#853561" stroke-width="1.51"/><path d="M647,-296L395,-229L875,71Z" fill="#d36c46" stroke="#d36c46" stroke-width="1.51"/><path d="M887,-407L647,-296L985,-81Z" fill="#d7835c" stroke="#d7835c" stroke-width="1.51"/><path d="M985,-81L647,-296L875,71Z" fill="#d7835b" stroke="#d7835b" stroke-width="1.51"/><path d="M2183,964L2121,579L1848,615Z" fill="#a294ad" stroke="#a294ad" stroke-width="1.51"/><path d="M1717,-65L1380,-218L1626,156Z" fill="#a66d78" stroke="#a66d78" stroke-width="1.51"/><path d="M1626,156L1380,-218L1438,209Z" fill="#ba7b7e" stroke="#ba7b7e" stroke-width="1.51"/><path d="M2311,1969L1845,1944L1358,1971Z" fill="#3b50a2" stroke="#3b50a2" stroke-width="1.51"/><path d="M1358,1971L1845,1944L1787,1699Z" fill="#4f67af" stroke="#4f67af" stroke-width="1.51"/><path d="M1787,1699L2220,1727L2103,1385Z" fill="#313695" stroke="#313695" stroke-width="1.51"/><path d="M2130,242L1717,-65L1626,156Z" fill="#a0536b" stroke="#a0536b" stroke-width="1.51"/><path d="M-447,556L-146,913L-210,471Z" fill="#d88862" stroke="#d88862" stroke-width="1.51"/><path d="M-330,1002L-496,1306L-48,1277Z" fill="#9d6173" stroke="#9d6173" stroke-width="1.51"/><path d="M-470,145L-447,556L-210,471Z" fill="#d15c3e" stroke="#d15c3e" stroke-width="1.51"/><path d="M-176,187L-470,145L-210,471Z" fill="#ca3d32" stroke="#ca3d32" stroke-width="1.51"/><path d="M395,-229L-36,-42L408,240Z" fill="#c2292b" stroke="#c2292b" stroke-width="1.51"/><path d="M1380,-218L887,-407L985,-81Z" fill="#d68d78" stroke="#d68d78" stroke-width="1.51"/><path d="M647,-296L295,-396L395,-229Z" fill="#ce4b37" stroke="#ce4b37" stroke-width="1.51"/><path d="M2121,579L2130,242L1848,615Z" fill="#a67588" stroke="#a67588" stroke-width="1.51"/><path d="M2425,155L2130,242L2121,579Z" fill="#a55774" stroke="#a55774" stroke-width="1.51"/><path d="M2183,964L2569,665L2121,579Z" fill="#a094b0" stroke="#a094b0" stroke-width="1.51"/><path d="M2103,1385L2384,1033L2183,964Z" fill="#5c73b5" stroke="#5c73b5" stroke-width="1.51"/><path d="M2522,1290L2384,1033L2103,1385Z" fill="#4960ab" stroke="#4960ab" stroke-width="1.51"/><path d="M395,-229L295,-396L-36,-42Z" fill="#bf2128" stroke="#bf2128" stroke-width="1.51"/><path d="M644,-525L295,-396L647,-296Z" fill="#d15a3d" stroke="#d15a3d" stroke-width="1.51"/><path d="M2169,1896L2220,1727L1787,1699Z" fill="#313695" stroke="#313695" stroke-width="1.51"/><path d="M1356,-461L644,-525L887,-407Z" fill="#d98d69" stroke="#d98d69" stroke-width="1.51"/><path d="M887,-407L644,-525L647,-296Z" fill="#d5774f" stroke="#d5774f" stroke-width="1.51"/><path d="M1380,-218L1356,-461L887,-407Z" fill="#d08987" stroke="#d08987" stroke-width="1.51"/><path d="M1796,-599L1356,-461L1380,-218Z" fill="#ae737b" stroke="#ae737b" stroke-width="1.51"/><path d="M1796,-599L1380,-218L1717,-65Z" fill="#a06575" stroke="#a06575" stroke-width="1.51"/><path d="M1845,1944L2169,1896L1787,1699Z" fill="#36419a" stroke="#36419a" stroke-width="1.51"/><path d="M-447,556L-516,-89L-496,1306Z" fill="#d7825a" stroke="#d7825a" stroke-width="1.51"/><path d="M-516,-89L-470,145L-176,187Z" fill="#b31227" stroke="#b31227" stroke-width="1.51"/><path d="M-516,-89L-176,187L-36,-42Z" fill="#a80426" stroke="#a80426" stroke-width="1.51"/><path d="M2311,1969L2308,1688L2220,1727Z" fill="#313695" stroke="#313695" stroke-width="1.51"/><path d="M2220,1727L2308,1688L2103,1385Z" fill="#313695" stroke="#313695" stroke-width="1.51"/><path d="M-496,1306L-442,2080L-349,1579Z" fill="#80265d" stroke="#80265d" stroke-width="1.51"/><path d="M-349,1579L-442,2080L-27,1902Z" fill="#80265d" stroke="#80265d" stroke-width="1.51"/><path d="M-27,1902L-442,2080L549,2113Z" fill="#83285d" stroke="#83285d" stroke-width="1.51"/><path d="M2425,155L2098,-198L2130,242Z" fill="#8b2c5e" stroke="#8b2c5e" stroke-width="1.51"/><path d="M2308,1688L2522,1290L2103,1385Z" fill="#313695" stroke="#313695" stroke-width="1.51"/><path d="M2308,1688L2311,1969L2522,1290Z" fill="#313695" stroke="#313695" stroke-width="1.51"/><path d="M2169,1896L2311,1969L2220,1727Z" fill="#313695" stroke="#313695" stroke-width="1.51"/><path d="M1845,1944L2311,1969L2169,1896Z" fill="#313695" stroke="#313695" stroke-width="1.51"/><path d="M549,2113L2311,1969L1358,1971Z" fill="#7384bf" stroke="#7384bf" stroke-width="1.51"/><path d="M2130,242L2098,-198L1717,-65Z" fill="#812a5e" stroke="#812a5e" stroke-width="1.51"/><path d="M2569,665L2183,964L2384,1033Z" fill="#8a8ec6" stroke="#8a8ec6" stroke-width="1.51"/><path d="M2522,1290L2569,665L2384,1033Z" fill="#7685c0" stroke="#7685c0" stroke-width="1.51"/><path d="M-54,-607L-516,-89L-36,-42Z" fill="#a50026" stroke="#a50026" stroke-width="1.51"/><path d="M-470,145L-516,-89L-447,556Z" fill="#c42e2c" stroke="#c42e2c" stroke-width="1.51"/><path d="M2569,665L2425,155L2121,579Z" fill="#a67386" stroke="#a67386" stroke-width="1.51"/><path d="M295,-396L-54,-607L-36,-42Z" fill="#ad0b27" stroke="#ad0b27" stroke-width="1.51"/><path d="M644,-525L-54,-607L295,-396Z" fill="#c5312d" stroke="#c5312d" stroke-width="1.51"/><path d="M1796,-599L-54,-607L644,-525Z" fill="#d68057" stroke="#d68057" stroke-width="1.51"/><path d="M2040,-538L1796,-599L2098,-198Z" fill="#812b5e" stroke="#812b5e" stroke-width="1.51"/><path d="M2098,-198L1796,-599L1717,-65Z" fill="#894065" stroke="#894065" stroke-width="1.51"/><path d="M1356,-461L1796,-599L644,-525Z" fill="#c98685" stroke="#c98685" stroke-width="1.51"/><path d="M2551,-403L2040,-538L2098,-198Z" fill="#80265d" stroke="#80265d" stroke-width="1.51"/><path d="M2425,155L2570,-59L2098,-198Z" fill="#80265d" stroke="#80265d" stroke-width="1.51"/><path d="M2569,665L2570,-59L2425,155Z" fill="#a2486c" stroke="#a2486c" stroke-width="1.51"/><path d="M-54,-607L-581,-488L-516,-89Z" fill="#a50026" stroke="#a50026" stroke-width="1.51"/><path d="M-516,-89L-581,-488L-496,1306Z" fill="#c83830" stroke="#c83830" stroke-width="1.51"/><path d="M2570,-59L2551,-403L2098,-198Z" fill="#80265d" stroke="#80265d" stroke-width="1.51"/></svg>