<svg xmlns="http://www.w3.org/2000/svg" width="2000" height="1440"><path d="M891,648L777,402L340,679Z" fill="#df1cf2" stroke="#df1cf2" stroke-width="1.51"/><path d="M340,679L506,981L891,648Z" fill="#e114ec" stroke="#e114ec" stroke-width="1.51"/><path d="M777,402L524,267L340,679Z" fill="#e31bed" stroke="#e31bed" stroke-width="1.51"/><path d="M506,981L866,986L891,648Z" fill="#c578b5" stroke="#c578b5" stroke-width="1.51"/><path d="M524,267L231,308L340,679Z" fill="#bc2ce9" stroke="#bc2ce9" stroke-width="1.51"/><path d="M559,1321L1024,1124L866,986Z" fill="#b3a3e0" stroke="#b3a3e0" stroke-width="1.51"/><path d="M340,679L213,1035L506,981Z" fill="#90849c" stroke="#90849c" stroke-width="1.51"/><path d="M-149,834L213,1035L340,679Z" fill="#a5a5c8" stroke="#a5a5c8" stroke-width="1.51"/><path d="M866,986L1306,1029L891,648Z" fill="#b07ca3" stroke="#b07ca3" stroke-width="1.51"/><path d="M559,1321L866,986L506,981Z" fill="#c9a9d6" stroke="#c9a9d6" stroke-width="1.51"/><path d="M213,1035L273,1203L506,981Z" fill="#9daccc" stroke="#9daccc" stroke-width="1.51"/><path d="M273,1203L559,1321L506,981Z" fill="#a5a3e3" stroke="#a5a3e3" stroke-width="1.51"/><path d="M655,-173L424,-65L524,267Z" fill="#a982f5" stroke="#a982f5" stroke-width="1.51"/><path d="M524,267L424,-65L231,308Z" fill="#a16cee" stroke="#a16cee" stroke-width="1.51"/><path d="M58,84L-73,410L231,308Z" fill="#8b7ff2" stroke="#8b7ff2" stroke-width="1.51"/><path d="M231,308L-73,410L340,679Z" fill="#cb85f9" stroke="#cb85f9" stroke-width="1.51"/><path d="M213,1035L-67,1292L273,1203Z" fill="#7bdbf0" stroke="#7bdbf0" stroke-width="1.51"/><path d="M777,402L655,-173L524,267Z" fill="#ca72f6" stroke="#ca72f6" stroke-width="1.51"/><path d="M1322,258L1099,55L777,402Z" fill="#bc3fe9" stroke="#bc3fe9" stroke-width="1.51"/><path d="M1322,258L777,402L891,648Z" fill="#d318eb" stroke="#d318eb" stroke-width="1.51"/><path d="M424,-65L58,84L231,308Z" fill="#98acfb" stroke="#98acfb" stroke-width="1.51"/><path d="M1306,1029L1389,503L891,648Z" fill="#ba6bb6" stroke="#ba6bb6" stroke-width="1.51"/><path d="M-73,410L-149,834L340,679Z" fill="#8d7bf1" stroke="#8d7bf1" stroke-width="1.51"/><path d="M1389,503L1322,258L891,648Z" fill="#ca74b9" stroke="#ca74b9" stroke-width="1.51"/><path d="M1024,1124L1306,1029L866,986Z" fill="#c7a7c5" stroke="#c7a7c5" stroke-width="1.51"/><path d="M1316,1121L1306,1029L1024,1124Z" fill="#8bd08f" stroke="#8bd08f" stroke-width="1.51"/><path d="M1099,55L655,-173L777,402Z" fill="#aa7ff4" stroke="#aa7ff4" stroke-width="1.51"/><path d="M-147,-136L-349,150L58,84Z" fill="#4cb7ff" stroke="#4cb7ff" stroke-width="1.51"/><path d="M1306,1029L1696,668L1389,503Z" fill="#bda4c6" stroke="#bda4c6" stroke-width="1.51"/><path d="M1007,1664L1316,1121L1024,1124Z" fill="#7a4f7b" stroke="#7a4f7b" stroke-width="1.51"/><path d="M227,1702L669,1687L559,1321Z" fill="#98848e" stroke="#98848e" stroke-width="1.51"/><path d="M-149,834L-67,1292L213,1035Z" fill="#72d9d0" stroke="#72d9d0" stroke-width="1.51"/><path d="M1099,55L1133,-195L655,-173Z" fill="#8f7cf2" stroke="#8f7cf2" stroke-width="1.51"/><path d="M1439,-160L1133,-195L1099,55Z" fill="#78afb2" stroke="#78afb2" stroke-width="1.51"/><path d="M559,1321L1007,1664L1024,1124Z" fill="#795b87" stroke="#795b87" stroke-width="1.51"/><path d="M227,1702L559,1321L273,1203Z" fill="#77738a" stroke="#77738a" stroke-width="1.51"/><path d="M-73,410L-475,533L-149,834Z" fill="#9a7ff6" stroke="#9a7ff6" stroke-width="1.51"/><path d="M-149,834L-338,1204L-67,1292Z" fill="#66d8df" stroke="#66d8df" stroke-width="1.51"/><path d="M58,84L-349,150L-73,410Z" fill="#7a94f7" stroke="#7a94f7" stroke-width="1.51"/><path d="M-147,-136L58,84L424,-65Z" fill="#62b9ff" stroke="#62b9ff" stroke-width="1.51"/><path d="M202,-525L-147,-136L424,-65Z" fill="#6fbaff" stroke="#6fbaff" stroke-width="1.51"/><path d="M1389,503L1835,86L1322,258Z" fill="#a2a2cf" stroke="#a2a2cf" stroke-width="1.51"/><path d="M1322,258L1439,-160L1099,55Z" fill="#69c19c" stroke="#69c19c" stroke-width="1.51"/><path d="M1795,916L1696,668L1306,1029Z" fill="#8acda2" stroke="#8acda2" stroke-width="1.51"/><path d="M-349,150L-475,533L-73,410Z" fill="#9f81f4" stroke="#9f81f4" stroke-width="1.51"/><path d="M-475,533L-424,1010L-149,834Z" fill="#ac85f0" stroke="#ac85f0" stroke-width="1.51"/><path d="M669,1687L1007,1664L559,1321Z" fill="#aa8995" stroke="#aa8995" stroke-width="1.51"/><path d="M1316,1121L1795,916L1306,1029Z" fill="#7cf792" stroke="#7cf792" stroke-width="1.51"/><path d="M-424,1010L-338,1204L-149,834Z" fill="#6cd2c1" stroke="#6cd2c1" stroke-width="1.51"/><path d="M-67,1292L227,1702L273,1203Z" fill="#66a393" stroke="#66a393" stroke-width="1.51"/><path d="M1661,-183L1439,-160L1835,86Z" fill="#50d2ec" stroke="#50d2ec" stroke-width="1.51"/><path d="M-63,1630L227,1702L-67,1292Z" fill="#59b597" stroke="#59b597" stroke-width="1.51"/><path d="M655,-173L503,-536L424,-65Z" fill="#a581f4" stroke="#a581f4" stroke-width="1.51"/><path d="M1133,-653L503,-536L655,-173Z" fill="#ab83fa" stroke="#ab83fa" stroke-width="1.51"/><path d="M1133,-653L655,-173L1133,-195Z" fill="#927cf2" stroke="#927cf2" stroke-width="1.51"/><path d="M-338,1204L-63,1630L-67,1292Z" fill="#429391" stroke="#429391" stroke-width="1.51"/><path d="M1835,86L1439,-160L1322,258Z" fill="#7ddadd" stroke="#7ddadd" stroke-width="1.51"/><path d="M1833,1264L1795,916L1316,1121Z" fill="#6af3c6" stroke="#6af3c6" stroke-width="1.51"/><path d="M503,-536L202,-525L424,-65Z" fill="#7e7ef2" stroke="#7e7ef2" stroke-width="1.51"/><path d="M1007,1664L1450,1698L1316,1121Z" fill="#3eb72d" stroke="#3eb72d" stroke-width="1.51"/><path d="M669,1687L779,1889L1007,1664Z" fill="#998290" stroke="#998290" stroke-width="1.51"/><path d="M153,1897L779,1889L669,1687Z" fill="#a1858f" stroke="#a1858f" stroke-width="1.51"/><path d="M153,1897L669,1687L227,1702Z" fill="#80848e" stroke="#80848e" stroke-width="1.51"/><path d="M779,1889L974,1851L1007,1664Z" fill="#867c8c" stroke="#867c8c" stroke-width="1.51"/><path d="M202,-525L20,-514L-147,-136Z" fill="#44b7ff" stroke="#44b7ff" stroke-width="1.51"/><path d="M-147,-136L-388,-256L-349,150Z" fill="#38b6ff" stroke="#38b6ff" stroke-width="1.51"/><path d="M1439,-160L1311,-544L1133,-195Z" fill="#5ac09e" stroke="#5ac09e" stroke-width="1.51"/><path d="M1835,86L1389,503L1696,668Z" fill="#bca5e6" stroke="#bca5e6" stroke-width="1.51"/><path d="M20,-514L-388,-256L-147,-136Z" fill="#38b6ff" stroke="#38b6ff" stroke-width="1.51"/><path d="M-349,150L-388,-256L-475,533Z" fill="#76b5fe" stroke="#76b5fe" stroke-width="1.51"/><path d="M2062,230L1835,86L1696,668Z" fill="#745184" stroke="#745184" stroke-width="1.51"/><path d="M-63,1630L153,1897L227,1702Z" fill="#68b796" stroke="#68b796" stroke-width="1.51"/><path d="M1338,1978L1450,1698L1007,1664Z" fill="#32b826" stroke="#32b826" stroke-width="1.51"/><path d="M1711,-464L1311,-544L1439,-160Z" fill="#6fd8d4" stroke="#6fd8d4" stroke-width="1.51"/><path d="M1450,1698L1833,1264L1316,1121Z" fill="#4aac6e" stroke="#4aac6e" stroke-width="1.51"/><path d="M2142,581L2062,230L1696,668Z" fill="#a57d91" stroke="#a57d91" stroke-width="1.51"/><path d="M503,-536L-322,-681L202,-525Z" fill="#67b9ff" stroke="#67b9ff" stroke-width="1.51"/><path d="M202,-525L-322,-681L20,-514Z" fill="#38b6ff" stroke="#38b6ff" stroke-width="1.51"/><path d="M1311,-544L1133,-653L1133,-195Z" fill="#89a6c2" stroke="#89a6c2" stroke-width="1.51"/><path d="M-63,1630L-70,2033L153,1897Z" fill="#53b497" stroke="#53b497" stroke-width="1.51"/><path d="M-338,1204L-394,1711L-63,1630Z" fill="#51b497" stroke="#51b497" stroke-width="1.51"/><path d="M-424,1010L-394,1711L-338,1204Z" fill="#2c738b" stroke="#2c738b" stroke-width="1.51"/><path d="M-481,1978L-394,1711L-424,1010Z" fill="#51b497" stroke="#51b497" stroke-width="1.51"/><path d="M1450,1698L1674,1687L1833,1264Z" fill="#49cb7d" stroke="#49cb7d" stroke-width="1.51"/><path d="M1338,1978L1674,1687L1450,1698Z" fill="#58d667" stroke="#58d667" stroke-width="1.51"/><path d="M2142,581L1696,668L1795,916Z" fill="#7b5384" stroke="#7b5384" stroke-width="1.51"/><path d="M2082,-162L1711,-464L1661,-183Z" fill="#2c728a" stroke="#2c728a" stroke-width="1.51"/><path d="M1661,-183L1711,-464L1439,-160Z" fill="#5ad8ea" stroke="#5ad8ea" stroke-width="1.51"/><path d="M2119,1003L1795,916L1833,1264Z" fill="#51b662" stroke="#51b662" stroke-width="1.51"/><path d="M2119,1003L2142,581L1795,916Z" fill="#8b9c6d" stroke="#8b9c6d" stroke-width="1.51"/><path d="M-70,2033L1338,1978L779,1889Z" fill="#ac8994" stroke="#ac8994" stroke-width="1.51"/><path d="M779,1889L1338,1978L974,1851Z" fill="#9c828e" stroke="#9c828e" stroke-width="1.51"/><path d="M974,1851L1338,1978L1007,1664Z" fill="#a28b88" stroke="#a28b88" stroke-width="1.51"/><path d="M1311,-544L2044,-580L1133,-653Z" fill="#6dd8d6" stroke="#6dd8d6" stroke-width="1.51"/><path d="M2082,-162L1661,-183L1835,86Z" fill="#37818e" stroke="#37818e" stroke-width="1.51"/><path d="M2144,1283L2119,1003L1833,1264Z" fill="#4bd082" stroke="#4bd082" stroke-width="1.51"/><path d="M153,1897L-70,2033L779,1889Z" fill="#7e9891" stroke="#7e9891" stroke-width="1.51"/><path d="M-394,1711L-70,2033L-63,1630Z" fill="#51b497" stroke="#51b497" stroke-width="1.51"/><path d="M20,-514L-322,-681L-388,-256Z" fill="#38b6ff" stroke="#38b6ff" stroke-width="1.51"/><path d="M1133,-653L-322,-681L503,-536Z" fill="#8e7ff3" stroke="#8e7ff3" stroke-width="1.51"/><path d="M2205,1760L2144,1283L1833,1264Z" fill="#20af21" stroke="#20af21" stroke-width="1.51"/><path d="M2119,1003L2415,669L2142,581Z" fill="#9f838f" stroke="#9f838f" stroke-width="1.51"/><path d="M2205,1760L1833,1264L1674,1687Z" fill="#218e27" stroke="#218e27" stroke-width="1.51"/><path d="M2561,165L2082,-162L2062,230Z" fill="#69b796" stroke="#69b796" stroke-width="1.51"/><path d="M2062,230L2082,-162L1835,86Z" fill="#60b496" stroke="#60b496" stroke-width="1.51"/><path d="M-394,1711L-481,1978L-70,2033Z" fill="#51b497" stroke="#51b497" stroke-width="1.51"/><path d="M-475,533L-481,1978L-424,1010Z" fill="#53d7f0" stroke="#53d7f0" stroke-width="1.51"/><path d="M2142,581L2561,165L2062,230Z" fill="#91838e" stroke="#91838e" stroke-width="1.51"/><path d="M2565,844L2415,669L2119,1003Z" fill="#879e69" stroke="#879e69" stroke-width="1.51"/><path d="M2082,-162L2044,-580L1711,-464Z" fill="#489f93" stroke="#489f93" stroke-width="1.51"/><path d="M1711,-464L2044,-580L1311,-544Z" fill="#47b9d2" stroke="#47b9d2" stroke-width="1.51"/><path d="M2356,-429L2044,-580L2082,-162Z" fill="#51b497" stroke="#51b497" stroke-width="1.51"/><path d="M2573,1342L2565,844L2119,1003Z" fill="#58d665" stroke="#58d665" stroke-width="1.51"/><path d="M1338,1978L1799,2105L1674,1687Z" fill="#4fd57f" stroke="#4fd57f" stroke-width="1.51"/><path d="M-70,2033L1799,2105L1338,1978Z" fill="#9b828e" stroke="#9b828e" stroke-width="1.51"/><path d="M1799,2105L2205,1760L1674,1687Z" fill="#218a27" stroke="#218a27" stroke-width="1.51"/><path d="M2415,669L2561,165L2142,581Z" fill="#aa8893" stroke="#aa8893" stroke-width="1.51"/><path d="M2573,1342L2119,1003L2144,1283Z" fill="#42bb6e" stroke="#42bb6e" stroke-width="1.51"/><path d="M2565,844L2561,165L2415,669Z" fill="#a38693" stroke="#a38693" stroke-width="1.51"/><path d="M2577,-50L2356,-429L2082,-162Z" fill="#51b497" stroke="#51b497" stroke-width="1.51"/><path d="M2205,1760L2470,1488L2144,1283Z" fill="#20b120" stroke="#20b120" stroke-width="1.51"/><path d="M2565,844L2577,-50L2561,165Z" fill="#90828e" stroke="#90828e" stroke-width="1.51"/><path d="M2561,165L2577,-50L2082,-162Z" fill="#51b497" stroke="#51b497" stroke-width="1.51"/><path d="M2470,1488L2573,1342L2144,1283Z" fill="#218e27" stroke="#218e27" stroke-width="1.51"/><path d="M2565,844L2573,1342L2577,-50Z" fill="#94808d" stroke="#94808d" stroke-width="1.51"/><path d="M2470,1488L2508,1851L2573,1342Z" fill="#20b120" stroke="#20b120" stroke-width="1.51"/><path d="M2205,1760L2508,1851L2470,1488Z" fill="#20b120" stroke="#20b120" stroke-width="1.51"/><path d="M1799,2105L2187,2069L2205,1760Z" fill="#20b120" stroke="#20b120" stroke-width="1.51"/><path d="M2187,2069L2508,1851L2205,1760Z" fill="#20b120" stroke="#20b120" stroke-width="1.51"/></svg>