<svg xmlns="http://www.w3.org/2000/svg" width="500" height="200"><path d="M235,90L173,53L185,116Z" fill="#6fc5be" stroke="#6fc5be" stroke-width="1.51"/><path d="M173,53L100,79L185,116Z" fill="#8ed1bb" stroke="#8ed1bb" stroke-width="1.51"/><path d="M185,116L263,161L235,90Z" fill="#45a9c1" stroke="#45a9c1" stroke-width="1.51"/><path d="M228,222L263,161L185,116Z" fill="#4b7faf" stroke="#4b7faf" stroke-width="1.51"/><path d="M217,-77L173,-68L173,53Z" fill="#c2e6ca" stroke="#c2e6ca" stroke-width="1.51"/><path d="M263,161L323,62L235,90Z" fill="#3aabc3" stroke="#3aabc3" stroke-width="1.51"/><path d="M100,79L98,179L185,116Z" fill="#85bbbb" stroke="#85bbbb" stroke-width="1.51"/><path d="M263,161L345,178L323,62Z" fill="#2188bc" stroke="#2188bc" stroke-width="1.51"/><path d="M98,179L228,222L185,116Z" fill="#6984a9" stroke="#6984a9" stroke-width="1.51"/><path d="M173,53L95,-39L100,79Z" fill="#d6efb3" stroke="#d6efb3" stroke-width="1.51"/><path d="M217,-77L173,53L308,-37Z" fill="#b3ddce" stroke="#b3ddce" stroke-width="1.51"/><path d="M173,-68L95,-39L173,53Z" fill="#d7efc8" stroke="#d7efc8" stroke-width="1.51"/><path d="M100,79L0,144L98,179Z" fill="#9ab8b6" stroke="#9ab8b6" stroke-width="1.51"/><path d="M308,-37L173,53L235,90Z" fill="#a1d6bb" stroke="#a1d6bb" stroke-width="1.51"/><path d="M323,62L308,-37L235,90Z" fill="#95c6bc" stroke="#95c6bc" stroke-width="1.51"/><path d="M228,222L345,178L263,161Z" fill="#2f659c" stroke="#2f659c" stroke-width="1.51"/><path d="M323,62L407,86L308,-37Z" fill="#91b0b5" stroke="#91b0b5" stroke-width="1.51"/><path d="M98,179L166,257L228,222Z" fill="#5a7388" stroke="#5a7388" stroke-width="1.51"/><path d="M228,222L372,234L345,178Z" fill="#1a538a" stroke="#1a538a" stroke-width="1.51"/><path d="M166,257L199,286L228,222Z" fill="#486d8a" stroke="#486d8a" stroke-width="1.51"/><path d="M95,-39L-4,44L100,79Z" fill="#ebf7b1" stroke="#ebf7b1" stroke-width="1.51"/><path d="M98,179L60,267L166,257Z" fill="#767d87" stroke="#767d87" stroke-width="1.51"/><path d="M166,257L41,329L199,286Z" fill="#6b7987" stroke="#6b7987" stroke-width="1.51"/><path d="M-4,44L0,144L100,79Z" fill="#b2ddc3" stroke="#b2ddc3" stroke-width="1.51"/><path d="M345,178L407,86L323,62Z" fill="#318ab9" stroke="#318ab9" stroke-width="1.51"/><path d="M199,286L235,294L228,222Z" fill="#3e6a8b" stroke="#3e6a8b" stroke-width="1.51"/><path d="M95,-39L-20,-49L-4,44Z" fill="#fcfed1" stroke="#fcfed1" stroke-width="1.51"/><path d="M173,-68L90,-135L95,-39Z" fill="#e5f5c6" stroke="#e5f5c6" stroke-width="1.51"/><path d="M211,-150L152,-144L173,-68Z" fill="#c6e8c9" stroke="#c6e8c9" stroke-width="1.51"/><path d="M211,-150L173,-68L217,-77Z" fill="#bee4cb" stroke="#bee4cb" stroke-width="1.51"/><path d="M0,144L7,209L98,179Z" fill="#9890ab" stroke="#9890ab" stroke-width="1.51"/><path d="M322,-167L211,-150L217,-77Z" fill="#addacf" stroke="#addacf" stroke-width="1.51"/><path d="M345,178L419,163L407,86Z" fill="#2560a9" stroke="#2560a9" stroke-width="1.51"/><path d="M235,294L372,234L228,222Z" fill="#265d8c" stroke="#265d8c" stroke-width="1.51"/><path d="M7,209L60,267L98,179Z" fill="#838288" stroke="#838288" stroke-width="1.51"/><path d="M199,286L41,329L235,294Z" fill="#5e7588" stroke="#5e7588" stroke-width="1.51"/><path d="M409,202L419,163L345,178Z" fill="#224094" stroke="#224094" stroke-width="1.51"/><path d="M152,-144L90,-135L173,-68Z" fill="#dcf1c7" stroke="#dcf1c7" stroke-width="1.51"/><path d="M372,234L409,202L345,178Z" fill="#163c7f" stroke="#163c7f" stroke-width="1.51"/><path d="M-4,44L-74,106L0,144Z" fill="#afdbce" stroke="#afdbce" stroke-width="1.51"/><path d="M90,-135L-20,-49L95,-39Z" fill="#f7fcc8" stroke="#f7fcc8" stroke-width="1.51"/><path d="M-93,16L-74,106L-4,44Z" fill="#dcf1c7" stroke="#dcf1c7" stroke-width="1.51"/><path d="M0,144L-100,193L7,209Z" fill="#988faf" stroke="#988faf" stroke-width="1.51"/><path d="M308,-37L322,-167L217,-77Z" fill="#a8d0ce" stroke="#a8d0ce" stroke-width="1.51"/><path d="M211,-150L322,-167L152,-144Z" fill="#b4decd" stroke="#b4decd" stroke-width="1.51"/><path d="M413,-123L322,-167L308,-37Z" fill="#a1b6c7" stroke="#a1b6c7" stroke-width="1.51"/><path d="M464,-66L413,-123L308,-37Z" fill="#9ea3bf" stroke="#9ea3bf" stroke-width="1.51"/><path d="M419,163L477,119L407,86Z" fill="#2d65ab" stroke="#2d65ab" stroke-width="1.51"/><path d="M544,204L477,119L419,163Z" fill="#1c3784" stroke="#1c3784" stroke-width="1.51"/><path d="M477,119L491,86L407,86Z" fill="#3d70a1" stroke="#3d70a1" stroke-width="1.51"/><path d="M60,267L41,329L166,257Z" fill="#7b7f86" stroke="#7b7f86" stroke-width="1.51"/><path d="M-41,307L41,329L60,267Z" fill="#878492" stroke="#878492" stroke-width="1.51"/><path d="M-41,307L60,267L7,209Z" fill="#898495" stroke="#898495" stroke-width="1.51"/><path d="M464,-66L308,-37L407,86Z" fill="#9ea3bf" stroke="#9ea3bf" stroke-width="1.51"/><path d="M-20,-49L-81,-18L-4,44Z" fill="#ffffd9" stroke="#ffffd9" stroke-width="1.51"/><path d="M-36,-108L-81,-18L-20,-49Z" fill="#ffffd9" stroke="#ffffd9" stroke-width="1.51"/><path d="M-81,-18L-93,16L-4,44Z" fill="#fafdce" stroke="#fafdce" stroke-width="1.51"/><path d="M90,-135L-36,-108L-20,-49Z" fill="#feffd5" stroke="#feffd5" stroke-width="1.51"/><path d="M235,294L355,340L372,234Z" fill="#1a5189" stroke="#1a5189" stroke-width="1.51"/><path d="M372,234L440,354L409,202Z" fill="#17327a" stroke="#17327a" stroke-width="1.51"/><path d="M409,202L544,204L419,163Z" fill="#182978" stroke="#182978" stroke-width="1.51"/><path d="M41,329L355,340L235,294Z" fill="#426c8a" stroke="#426c8a" stroke-width="1.51"/><path d="M483,-37L464,-66L407,86Z" fill="#9990b1" stroke="#9990b1" stroke-width="1.51"/><path d="M491,86L483,-37L407,86Z" fill="#80859a" stroke="#80859a" stroke-width="1.51"/><path d="M-74,106L-100,193L0,144Z" fill="#9fadc3" stroke="#9fadc3" stroke-width="1.51"/><path d="M-93,16L-100,193L-74,106Z" fill="#abd6ce" stroke="#abd6ce" stroke-width="1.51"/><path d="M-100,193L-41,307L7,209Z" fill="#898498" stroke="#898498" stroke-width="1.51"/><path d="M322,-167L-70,-134L152,-144Z" fill="#def2c7" stroke="#def2c7" stroke-width="1.51"/><path d="M152,-144L-70,-134L90,-135Z" fill="#f7fcc7" stroke="#f7fcc7" stroke-width="1.51"/><path d="M90,-135L-70,-134L-36,-108Z" fill="#ffffd9" stroke="#ffffd9" stroke-width="1.51"/><path d="M-36,-108L-70,-134L-81,-18Z" fill="#ffffd9" stroke="#ffffd9" stroke-width="1.51"/><path d="M-81,-18L-70,-134L-93,16Z" fill="#ffffd9" stroke="#ffffd9" stroke-width="1.51"/><path d="M-100,193L-95,295L-41,307Z" fill="#898498" stroke="#898498" stroke-width="1.51"/><path d="M-41,307L-95,295L41,329Z" fill="#898498" stroke="#898498" stroke-width="1.51"/><path d="M355,340L440,354L372,234Z" fill="#17387d" stroke="#17387d" stroke-width="1.51"/><path d="M477,119L544,204L491,86Z" fill="#194a85" stroke="#194a85" stroke-width="1.51"/><path d="M41,329L440,354L355,340Z" fill="#265d8c" stroke="#265d8c" stroke-width="1.51"/><path d="M588,-41L541,-101L483,-37Z" fill="#898498" stroke="#898498" stroke-width="1.51"/><path d="M440,354L544,204L409,202Z" fill="#112369" stroke="#112369" stroke-width="1.51"/><path d="M483,-37L541,-101L464,-66Z" fill="#8b859a" stroke="#8b859a" stroke-width="1.51"/><path d="M464,-66L541,-101L413,-123Z" fill="#928ba6" stroke="#928ba6" stroke-width="1.51"/><path d="M413,-123L649,-119L322,-167Z" fill="#958dac" stroke="#958dac" stroke-width="1.51"/><path d="M588,-41L483,-37L491,86Z" fill="#888496" stroke="#888496" stroke-width="1.51"/><path d="M628,45L588,-41L491,86Z" fill="#7f8086" stroke="#7f8086" stroke-width="1.51"/><path d="M544,204L644,106L491,86Z" fill="#1a4d87" stroke="#1a4d87" stroke-width="1.51"/><path d="M556,320L604,201L544,204Z" fill="#081d58" stroke="#081d58" stroke-width="1.51"/><path d="M440,354L556,320L544,204Z" fill="#081d58" stroke="#081d58" stroke-width="1.51"/><path d="M644,106L628,45L491,86Z" fill="#486d8a" stroke="#486d8a" stroke-width="1.51"/><path d="M604,201L644,106L544,204Z" fill="#172c77" stroke="#172c77" stroke-width="1.51"/><path d="M617,341L644,106L604,201Z" fill="#081d58" stroke="#081d58" stroke-width="1.51"/><path d="M556,320L617,341L604,201Z" fill="#081d58" stroke="#081d58" stroke-width="1.51"/><path d="M440,354L617,341L556,320Z" fill="#081d58" stroke="#081d58" stroke-width="1.51"/><path d="M628,45L649,-119L588,-41Z" fill="#898498" stroke="#898498" stroke-width="1.51"/><path d="M588,-41L649,-119L541,-101Z" fill="#898498" stroke="#898498" stroke-width="1.51"/><path d="M541,-101L649,-119L413,-123Z" fill="#898498" stroke="#898498" stroke-width="1.51"/><path d="M644,106L649,-119L628,45Z" fill="#868390" stroke="#868390" stroke-width="1.51"/></svg>